<?xml version="1.0" encoding="utf-8"?>
<!-- Generator: Adobe Illustrator 24.3.0, SVG Export Plug-In . SVG Version: 6.00 Build 0)  -->
<svg version="1.1" id="Layer_1" xmlns="http://www.w3.org/2000/svg" xmlns:xlink="http://www.w3.org/1999/xlink" x="0px" y="0px"
	 viewBox="0 0 86.6 84.5" style="enable-background:new 0 0 86.6 84.5;" xml:space="preserve">
<style type="text/css">
	.st0{fill:#001F3F;}
</style>
<path class="st0" d="M86.6,33.7c0-8.2-5.8-11.2-5.8-11.2L41,0.2c-0.4-0.2-1-0.2-1.4,0l-38.8,22C0.3,22.5,0,22.9,0,23.5V30
	c0,0.5,0.3,1,0.8,1.3L39.6,52c0.4,0.2,0.9,0.2,1.4,0l37.8-20.1c0.7-0.4,1.6-0.1,1.9,0.6c0.1,0.2,0.2,0.4,0.2,0.7v4.5
	c0,0.5-0.3,1-0.8,1.3l-39,21.4c-0.4,0.2-1,0.2-1.4,0L2.1,39.8c-0.7-0.4-1.6-0.1-2,0.6C0.1,40.6,0,40.8,0,41v5.1c0,0.5,0.3,1,0.8,1.3
	l38.8,20.8c0.2,0.1,0.5,0.2,0.8,0.2c0.3,0,0.5-0.1,0.7-0.2L54.5,61l24.2-12.9c0.7-0.4,1.6-0.1,2,0.6c0.1,0.2,0.2,0.4,0.2,0.7v4.5
	c0,0.5-0.3,1-0.8,1.3l-39,21.4c-0.4,0.2-1,0.2-1.4,0L2.1,55.9c-0.7-0.4-1.6-0.1-2,0.6C0.1,56.7,0,56.9,0,57.2v4.9
	c0,0.5,0.3,1,0.8,1.3l39,21c0.4,0.2,0.9,0.2,1.4,0L80.8,63c0,0,5.8-2.6,5.8-13.1c0.1-2.6-0.6-5.1-1.9-7.3
	C86.1,39.9,86.7,36.8,86.6,33.7z"/>
</svg>
